<mxfile host="app.diagrams.net" modified="2024-02-27T09:46:52.155Z" agent="Mozilla/5.0 (Windows NT 10.0; Win64; x64) AppleWebKit/537.36 (KHTML, like Gecko) Chrome/122.0.0.0 Safari/537.36" etag="4sZnPJ2R3QbT4f-I7QNb" version="23.1.7" type="device">
  <diagram id="C5RBs43oDa-KdzZeNtuy" name="Page-1">
    <mxGraphModel dx="1687" dy="2047" grid="1" gridSize="10" guides="1" tooltips="1" connect="1" arrows="1" fold="1" page="1" pageScale="1" pageWidth="827" pageHeight="1169" math="0" shadow="0">
      <root>
        <mxCell id="WIyWlLk6GJQsqaUBKTNV-0" />
        <mxCell id="WIyWlLk6GJQsqaUBKTNV-1" parent="WIyWlLk6GJQsqaUBKTNV-0" />
        <mxCell id="GhlGxq6gx5H_YgF2LxDl-67" value="" style="swimlane;fontStyle=0;align=center;verticalAlign=top;childLayout=stackLayout;horizontal=1;startSize=26;horizontalStack=0;resizeParent=1;resizeLast=0;collapsible=1;marginBottom=0;rounded=0;shadow=0;strokeWidth=1;" vertex="1" parent="WIyWlLk6GJQsqaUBKTNV-1">
          <mxGeometry x="544" y="300" width="160" height="86" as="geometry">
            <mxRectangle x="340" y="380" width="170" height="26" as="alternateBounds" />
          </mxGeometry>
        </mxCell>
        <mxCell id="GhlGxq6gx5H_YgF2LxDl-68" value="" style="line;html=1;strokeWidth=1;align=left;verticalAlign=middle;spacingTop=-1;spacingLeft=3;spacingRight=3;rotatable=0;labelPosition=right;points=[];portConstraint=eastwest;" vertex="1" parent="GhlGxq6gx5H_YgF2LxDl-67">
          <mxGeometry y="26" width="160" height="8" as="geometry" />
        </mxCell>
        <mxCell id="GhlGxq6gx5H_YgF2LxDl-71" value="" style="rounded=0;whiteSpace=wrap;html=1;" vertex="1" parent="WIyWlLk6GJQsqaUBKTNV-1">
          <mxGeometry x="534" y="290" width="160" height="86" as="geometry" />
        </mxCell>
        <mxCell id="GhlGxq6gx5H_YgF2LxDl-17" value="" style="endArrow=open;endSize=12;dashed=1;html=1;rounded=0;exitX=0.5;exitY=0;exitDx=0;exitDy=0;" edge="1" parent="WIyWlLk6GJQsqaUBKTNV-1" source="GhlGxq6gx5H_YgF2LxDl-5" target="GhlGxq6gx5H_YgF2LxDl-1">
          <mxGeometry width="160" relative="1" as="geometry">
            <mxPoint x="520" y="640" as="sourcePoint" />
            <mxPoint x="680" y="640" as="targetPoint" />
          </mxGeometry>
        </mxCell>
        <mxCell id="GhlGxq6gx5H_YgF2LxDl-16" value="" style="endArrow=open;endFill=1;endSize=12;html=1;rounded=0;exitX=0.5;exitY=0;exitDx=0;exitDy=0;" edge="1" parent="WIyWlLk6GJQsqaUBKTNV-1" source="GhlGxq6gx5H_YgF2LxDl-5" target="zkfFHV4jXpPFQw0GAbJ--11">
          <mxGeometry width="160" relative="1" as="geometry">
            <mxPoint x="-50" y="710" as="sourcePoint" />
            <mxPoint x="394" y="550" as="targetPoint" />
          </mxGeometry>
        </mxCell>
        <mxCell id="zkfFHV4jXpPFQw0GAbJ--0" value="&lt;&lt;介面&gt;&gt;&#xa;Subject" style="swimlane;fontStyle=0;align=center;verticalAlign=top;childLayout=stackLayout;horizontal=1;startSize=40;horizontalStack=0;resizeParent=1;resizeLast=0;collapsible=1;marginBottom=0;rounded=0;shadow=0;strokeWidth=1;" parent="WIyWlLk6GJQsqaUBKTNV-1" vertex="1">
          <mxGeometry x="314" y="130" width="160" height="130" as="geometry">
            <mxRectangle x="230" y="140" width="160" height="26" as="alternateBounds" />
          </mxGeometry>
        </mxCell>
        <mxCell id="zkfFHV4jXpPFQw0GAbJ--4" value="" style="line;html=1;strokeWidth=1;align=left;verticalAlign=middle;spacingTop=-1;spacingLeft=3;spacingRight=3;rotatable=0;labelPosition=right;points=[];portConstraint=eastwest;" parent="zkfFHV4jXpPFQw0GAbJ--0" vertex="1">
          <mxGeometry y="40" width="160" height="8" as="geometry" />
        </mxCell>
        <mxCell id="zkfFHV4jXpPFQw0GAbJ--1" value="registerObserver()" style="text;align=left;verticalAlign=top;spacingLeft=4;spacingRight=4;overflow=hidden;rotatable=0;points=[[0,0.5],[1,0.5]];portConstraint=eastwest;" parent="zkfFHV4jXpPFQw0GAbJ--0" vertex="1">
          <mxGeometry y="48" width="160" height="26" as="geometry" />
        </mxCell>
        <mxCell id="zkfFHV4jXpPFQw0GAbJ--2" value="removeObserver()" style="text;align=left;verticalAlign=top;spacingLeft=4;spacingRight=4;overflow=hidden;rotatable=0;points=[[0,0.5],[1,0.5]];portConstraint=eastwest;rounded=0;shadow=0;html=0;" parent="zkfFHV4jXpPFQw0GAbJ--0" vertex="1">
          <mxGeometry y="74" width="160" height="26" as="geometry" />
        </mxCell>
        <mxCell id="zkfFHV4jXpPFQw0GAbJ--3" value="notifyObservers()" style="text;align=left;verticalAlign=top;spacingLeft=4;spacingRight=4;overflow=hidden;rotatable=0;points=[[0,0.5],[1,0.5]];portConstraint=eastwest;rounded=0;shadow=0;html=0;" parent="zkfFHV4jXpPFQw0GAbJ--0" vertex="1">
          <mxGeometry y="100" width="160" height="26" as="geometry" />
        </mxCell>
        <mxCell id="zkfFHV4jXpPFQw0GAbJ--6" value="ConcreteSubject" style="swimlane;fontStyle=0;align=center;verticalAlign=top;childLayout=stackLayout;horizontal=1;startSize=26;horizontalStack=0;resizeParent=1;resizeLast=0;collapsible=1;marginBottom=0;rounded=0;shadow=0;strokeWidth=1;" parent="WIyWlLk6GJQsqaUBKTNV-1" vertex="1">
          <mxGeometry x="314" y="290" width="160" height="220" as="geometry">
            <mxRectangle x="130" y="380" width="160" height="26" as="alternateBounds" />
          </mxGeometry>
        </mxCell>
        <mxCell id="GhlGxq6gx5H_YgF2LxDl-37" value="observer[]" style="text;align=left;verticalAlign=top;spacingLeft=4;spacingRight=4;overflow=hidden;rotatable=0;points=[[0,0.5],[1,0.5]];portConstraint=eastwest;rounded=0;shadow=0;html=0;" vertex="1" parent="zkfFHV4jXpPFQw0GAbJ--6">
          <mxGeometry y="26" width="160" height="26" as="geometry" />
        </mxCell>
        <mxCell id="GhlGxq6gx5H_YgF2LxDl-32" value="mainState" style="text;align=left;verticalAlign=top;spacingLeft=4;spacingRight=4;overflow=hidden;rotatable=0;points=[[0,0.5],[1,0.5]];portConstraint=eastwest;rounded=0;shadow=0;html=0;" vertex="1" parent="zkfFHV4jXpPFQw0GAbJ--6">
          <mxGeometry y="52" width="160" height="26" as="geometry" />
        </mxCell>
        <mxCell id="zkfFHV4jXpPFQw0GAbJ--9" value="" style="line;html=1;strokeWidth=1;align=left;verticalAlign=middle;spacingTop=-1;spacingLeft=3;spacingRight=3;rotatable=0;labelPosition=right;points=[];portConstraint=eastwest;" parent="zkfFHV4jXpPFQw0GAbJ--6" vertex="1">
          <mxGeometry y="78" width="160" height="8" as="geometry" />
        </mxCell>
        <mxCell id="GhlGxq6gx5H_YgF2LxDl-2" value="registerObserver()" style="text;align=left;verticalAlign=top;spacingLeft=4;spacingRight=4;overflow=hidden;rotatable=0;points=[[0,0.5],[1,0.5]];portConstraint=eastwest;" vertex="1" parent="zkfFHV4jXpPFQw0GAbJ--6">
          <mxGeometry y="86" width="160" height="26" as="geometry" />
        </mxCell>
        <mxCell id="GhlGxq6gx5H_YgF2LxDl-3" value="removeObserver()" style="text;align=left;verticalAlign=top;spacingLeft=4;spacingRight=4;overflow=hidden;rotatable=0;points=[[0,0.5],[1,0.5]];portConstraint=eastwest;rounded=0;shadow=0;html=0;" vertex="1" parent="zkfFHV4jXpPFQw0GAbJ--6">
          <mxGeometry y="112" width="160" height="26" as="geometry" />
        </mxCell>
        <mxCell id="GhlGxq6gx5H_YgF2LxDl-4" value="notifyObservers()" style="text;align=left;verticalAlign=top;spacingLeft=4;spacingRight=4;overflow=hidden;rotatable=0;points=[[0,0.5],[1,0.5]];portConstraint=eastwest;rounded=0;shadow=0;html=0;" vertex="1" parent="zkfFHV4jXpPFQw0GAbJ--6">
          <mxGeometry y="138" width="160" height="26" as="geometry" />
        </mxCell>
        <mxCell id="zkfFHV4jXpPFQw0GAbJ--10" value="getState()" style="text;align=left;verticalAlign=top;spacingLeft=4;spacingRight=4;overflow=hidden;rotatable=0;points=[[0,0.5],[1,0.5]];portConstraint=eastwest;fontStyle=4" parent="zkfFHV4jXpPFQw0GAbJ--6" vertex="1">
          <mxGeometry y="164" width="160" height="26" as="geometry" />
        </mxCell>
        <mxCell id="zkfFHV4jXpPFQw0GAbJ--11" value="setState()" style="text;align=left;verticalAlign=top;spacingLeft=4;spacingRight=4;overflow=hidden;rotatable=0;points=[[0,0.5],[1,0.5]];portConstraint=eastwest;" parent="zkfFHV4jXpPFQw0GAbJ--6" vertex="1">
          <mxGeometry y="190" width="160" height="26" as="geometry" />
        </mxCell>
        <mxCell id="zkfFHV4jXpPFQw0GAbJ--13" value="ConcreteObserver" style="swimlane;fontStyle=0;align=center;verticalAlign=top;childLayout=stackLayout;horizontal=1;startSize=26;horizontalStack=0;resizeParent=1;resizeLast=0;collapsible=1;marginBottom=0;rounded=0;shadow=0;strokeWidth=1;" parent="WIyWlLk6GJQsqaUBKTNV-1" vertex="1">
          <mxGeometry x="534" y="290" width="160" height="86" as="geometry">
            <mxRectangle x="340" y="380" width="170" height="26" as="alternateBounds" />
          </mxGeometry>
        </mxCell>
        <mxCell id="zkfFHV4jXpPFQw0GAbJ--15" value="" style="line;html=1;strokeWidth=1;align=left;verticalAlign=middle;spacingTop=-1;spacingLeft=3;spacingRight=3;rotatable=0;labelPosition=right;points=[];portConstraint=eastwest;" parent="zkfFHV4jXpPFQw0GAbJ--13" vertex="1">
          <mxGeometry y="26" width="160" height="8" as="geometry" />
        </mxCell>
        <mxCell id="zkfFHV4jXpPFQw0GAbJ--14" value="update()" style="text;align=left;verticalAlign=top;spacingLeft=4;spacingRight=4;overflow=hidden;rotatable=0;points=[[0,0.5],[1,0.5]];portConstraint=eastwest;" parent="zkfFHV4jXpPFQw0GAbJ--13" vertex="1">
          <mxGeometry y="34" width="160" height="26" as="geometry" />
        </mxCell>
        <mxCell id="GhlGxq6gx5H_YgF2LxDl-1" value="// 其他觀察者的特定方法" style="text;align=left;verticalAlign=top;spacingLeft=4;spacingRight=4;overflow=hidden;rotatable=0;points=[[0,0.5],[1,0.5]];portConstraint=eastwest;" vertex="1" parent="zkfFHV4jXpPFQw0GAbJ--13">
          <mxGeometry y="60" width="160" height="26" as="geometry" />
        </mxCell>
        <mxCell id="zkfFHV4jXpPFQw0GAbJ--17" value="&lt;&lt;介面&gt;&gt;&#xa;Observer" style="swimlane;fontStyle=0;align=center;verticalAlign=top;childLayout=stackLayout;horizontal=1;startSize=40;horizontalStack=0;resizeParent=1;resizeLast=0;collapsible=1;marginBottom=0;rounded=0;shadow=0;strokeWidth=1;" parent="WIyWlLk6GJQsqaUBKTNV-1" vertex="1">
          <mxGeometry x="534" y="130" width="160" height="80" as="geometry">
            <mxRectangle x="550" y="140" width="160" height="26" as="alternateBounds" />
          </mxGeometry>
        </mxCell>
        <mxCell id="zkfFHV4jXpPFQw0GAbJ--23" value="" style="line;html=1;strokeWidth=1;align=left;verticalAlign=middle;spacingTop=-1;spacingLeft=3;spacingRight=3;rotatable=0;labelPosition=right;points=[];portConstraint=eastwest;" parent="zkfFHV4jXpPFQw0GAbJ--17" vertex="1">
          <mxGeometry y="40" width="160" height="8" as="geometry" />
        </mxCell>
        <mxCell id="zkfFHV4jXpPFQw0GAbJ--24" value="update()" style="text;align=left;verticalAlign=top;spacingLeft=4;spacingRight=4;overflow=hidden;rotatable=0;points=[[0,0.5],[1,0.5]];portConstraint=eastwest;" parent="zkfFHV4jXpPFQw0GAbJ--17" vertex="1">
          <mxGeometry y="48" width="160" height="26" as="geometry" />
        </mxCell>
        <mxCell id="GhlGxq6gx5H_YgF2LxDl-5" value="Client" style="rounded=1;whiteSpace=wrap;html=1;" vertex="1" parent="WIyWlLk6GJQsqaUBKTNV-1">
          <mxGeometry x="344" y="670" width="100" height="40" as="geometry" />
        </mxCell>
        <mxCell id="GhlGxq6gx5H_YgF2LxDl-6" value="foreach (s in subscribers) {&lt;br&gt;s.update(this)&lt;br&gt;&lt;div style=&quot;text-align: left;&quot;&gt;&lt;span style=&quot;background-color: initial;&quot;&gt;}&lt;/span&gt;&lt;/div&gt;" style="html=1;dropTarget=0;whiteSpace=wrap;" vertex="1" parent="WIyWlLk6GJQsqaUBKTNV-1">
          <mxGeometry x="100" y="290" width="180" height="100" as="geometry" />
        </mxCell>
        <mxCell id="GhlGxq6gx5H_YgF2LxDl-7" value="" style="shape=module;jettyWidth=8;jettyHeight=4;" vertex="1" parent="GhlGxq6gx5H_YgF2LxDl-6">
          <mxGeometry x="1" width="20" height="20" relative="1" as="geometry">
            <mxPoint x="-27" y="7" as="offset" />
          </mxGeometry>
        </mxCell>
        <mxCell id="GhlGxq6gx5H_YgF2LxDl-10" value="mainState = newState&lt;br&gt;&lt;div style=&quot;text-align: left;&quot;&gt;&lt;span style=&quot;background-color: initial;&quot;&gt;notifyObserver()&lt;/span&gt;&lt;/div&gt;" style="html=1;dropTarget=0;whiteSpace=wrap;" vertex="1" parent="WIyWlLk6GJQsqaUBKTNV-1">
          <mxGeometry x="100" y="410" width="180" height="100" as="geometry" />
        </mxCell>
        <mxCell id="GhlGxq6gx5H_YgF2LxDl-11" value="" style="shape=module;jettyWidth=8;jettyHeight=4;" vertex="1" parent="GhlGxq6gx5H_YgF2LxDl-10">
          <mxGeometry x="1" width="20" height="20" relative="1" as="geometry">
            <mxPoint x="-27" y="7" as="offset" />
          </mxGeometry>
        </mxCell>
        <mxCell id="GhlGxq6gx5H_YgF2LxDl-13" value="&lt;div style=&quot;text-align: left;&quot;&gt;&lt;span style=&quot;background-color: initial;&quot;&gt;s = new ConcreteSubject()&lt;/span&gt;&lt;/div&gt;o = new ConcreteObserver()&lt;br&gt;&lt;div style=&quot;text-align: left;&quot;&gt;&lt;span style=&quot;background-color: initial;&quot;&gt;s.registerObserver(o)&lt;/span&gt;&lt;/div&gt;" style="html=1;dropTarget=0;whiteSpace=wrap;" vertex="1" parent="WIyWlLk6GJQsqaUBKTNV-1">
          <mxGeometry x="304" y="540" width="180" height="100" as="geometry" />
        </mxCell>
        <mxCell id="GhlGxq6gx5H_YgF2LxDl-14" value="" style="shape=module;jettyWidth=8;jettyHeight=4;" vertex="1" parent="GhlGxq6gx5H_YgF2LxDl-13">
          <mxGeometry x="1" width="20" height="20" relative="1" as="geometry">
            <mxPoint x="-27" y="7" as="offset" />
          </mxGeometry>
        </mxCell>
        <mxCell id="GhlGxq6gx5H_YgF2LxDl-18" value="" style="endArrow=block;dashed=1;endFill=0;endSize=12;html=1;rounded=0;exitX=0.5;exitY=0;exitDx=0;exitDy=0;entryX=0.5;entryY=1;entryDx=0;entryDy=0;" edge="1" parent="WIyWlLk6GJQsqaUBKTNV-1" source="zkfFHV4jXpPFQw0GAbJ--13" target="zkfFHV4jXpPFQw0GAbJ--17">
          <mxGeometry width="160" relative="1" as="geometry">
            <mxPoint x="610" y="540" as="sourcePoint" />
            <mxPoint x="770" y="540" as="targetPoint" />
          </mxGeometry>
        </mxCell>
        <mxCell id="GhlGxq6gx5H_YgF2LxDl-19" value="1" style="endArrow=open;html=1;endSize=12;startArrow=diamondThin;startSize=14;startFill=0;edgeStyle=orthogonalEdgeStyle;align=left;verticalAlign=bottom;rounded=0;entryX=0;entryY=0.25;entryDx=0;entryDy=0;exitX=1.002;exitY=0.153;exitDx=0;exitDy=0;exitPerimeter=0;" edge="1" parent="WIyWlLk6GJQsqaUBKTNV-1" source="zkfFHV4jXpPFQw0GAbJ--0" target="zkfFHV4jXpPFQw0GAbJ--17">
          <mxGeometry x="-1" y="3" relative="1" as="geometry">
            <mxPoint x="480" y="150" as="sourcePoint" />
            <mxPoint x="530" y="150" as="targetPoint" />
          </mxGeometry>
        </mxCell>
        <mxCell id="GhlGxq6gx5H_YgF2LxDl-21" value="" style="endArrow=block;dashed=1;endFill=0;endSize=12;html=1;rounded=0;entryX=0.5;entryY=1;entryDx=0;entryDy=0;" edge="1" parent="WIyWlLk6GJQsqaUBKTNV-1" source="zkfFHV4jXpPFQw0GAbJ--6" target="zkfFHV4jXpPFQw0GAbJ--0">
          <mxGeometry width="160" relative="1" as="geometry">
            <mxPoint x="393.5" y="390" as="sourcePoint" />
            <mxPoint x="393.5" y="280" as="targetPoint" />
          </mxGeometry>
        </mxCell>
        <mxCell id="GhlGxq6gx5H_YgF2LxDl-22" value="" style="endArrow=none;dashed=1;html=1;rounded=0;entryX=0;entryY=0.5;entryDx=0;entryDy=0;exitX=1;exitY=0.5;exitDx=0;exitDy=0;" edge="1" parent="WIyWlLk6GJQsqaUBKTNV-1" source="GhlGxq6gx5H_YgF2LxDl-6" target="GhlGxq6gx5H_YgF2LxDl-4">
          <mxGeometry width="50" height="50" relative="1" as="geometry">
            <mxPoint x="260" y="445" as="sourcePoint" />
            <mxPoint x="200" y="600" as="targetPoint" />
          </mxGeometry>
        </mxCell>
        <mxCell id="GhlGxq6gx5H_YgF2LxDl-23" value="" style="endArrow=none;dashed=1;html=1;rounded=0;entryX=-0.003;entryY=0.845;entryDx=0;entryDy=0;entryPerimeter=0;" edge="1" parent="WIyWlLk6GJQsqaUBKTNV-1">
          <mxGeometry width="50" height="50" relative="1" as="geometry">
            <mxPoint x="280" y="440" as="sourcePoint" />
            <mxPoint x="314" y="440" as="targetPoint" />
          </mxGeometry>
        </mxCell>
        <mxCell id="GhlGxq6gx5H_YgF2LxDl-31" value="" style="group" vertex="1" connectable="0" parent="WIyWlLk6GJQsqaUBKTNV-1">
          <mxGeometry x="100" y="130" width="180" height="130" as="geometry" />
        </mxCell>
        <mxCell id="GhlGxq6gx5H_YgF2LxDl-30" value="" style="html=1;whiteSpace=wrap;strokeColor=#6c8ebf;fillColor=#dae8fc;" vertex="1" parent="GhlGxq6gx5H_YgF2LxDl-31">
          <mxGeometry width="180" height="130" as="geometry" />
        </mxCell>
        <mxCell id="GhlGxq6gx5H_YgF2LxDl-28" value="&lt;font style=&quot;font-size: 18px;&quot;&gt;1&lt;/font&gt;" style="shape=umlFrame;whiteSpace=wrap;html=1;pointerEvents=0;fillColor=#dae8fc;strokeColor=#6c8ebf;" vertex="1" parent="GhlGxq6gx5H_YgF2LxDl-31">
          <mxGeometry width="180" height="130" as="geometry" />
        </mxCell>
        <mxCell id="GhlGxq6gx5H_YgF2LxDl-29" value="&lt;b&gt;具體對象(ConcreteSubject)&lt;/b&gt;&lt;br&gt;實作Subject介面，除了register(註冊)與remove(移除)，&lt;div&gt;實作notifyObservers()，會在狀態改變，更新當前所有的觀察者&lt;/div&gt;" style="html=1;whiteSpace=wrap;strokeColor=#6c8ebf;fillColor=#dae8fc;" vertex="1" parent="GhlGxq6gx5H_YgF2LxDl-31">
          <mxGeometry y="22.941176470588236" width="180" height="107.05882352941175" as="geometry" />
        </mxCell>
        <mxCell id="GhlGxq6gx5H_YgF2LxDl-33" value="" style="group" vertex="1" connectable="0" parent="WIyWlLk6GJQsqaUBKTNV-1">
          <mxGeometry x="314" y="-30" width="160" height="130" as="geometry" />
        </mxCell>
        <mxCell id="GhlGxq6gx5H_YgF2LxDl-34" value="" style="html=1;whiteSpace=wrap;strokeColor=#6c8ebf;fillColor=#dae8fc;" vertex="1" parent="GhlGxq6gx5H_YgF2LxDl-33">
          <mxGeometry width="160" height="130" as="geometry" />
        </mxCell>
        <mxCell id="GhlGxq6gx5H_YgF2LxDl-35" value="&lt;font style=&quot;font-size: 18px;&quot;&gt;2&lt;/font&gt;" style="shape=umlFrame;whiteSpace=wrap;html=1;pointerEvents=0;fillColor=#dae8fc;strokeColor=#6c8ebf;" vertex="1" parent="GhlGxq6gx5H_YgF2LxDl-33">
          <mxGeometry width="160" height="130" as="geometry" />
        </mxCell>
        <mxCell id="GhlGxq6gx5H_YgF2LxDl-36" value="當狀態改變時，Subject會&lt;br&gt;歷遍observers[]中的觀察者，&lt;br&gt;並調用每個觀察者的通知方法update()" style="html=1;whiteSpace=wrap;strokeColor=#6c8ebf;fillColor=#dae8fc;" vertex="1" parent="GhlGxq6gx5H_YgF2LxDl-33">
          <mxGeometry y="22.94" width="160" height="107.06" as="geometry" />
        </mxCell>
        <mxCell id="GhlGxq6gx5H_YgF2LxDl-42" value="" style="group" vertex="1" connectable="0" parent="WIyWlLk6GJQsqaUBKTNV-1">
          <mxGeometry x="720" y="130" width="180" height="130" as="geometry" />
        </mxCell>
        <mxCell id="GhlGxq6gx5H_YgF2LxDl-43" value="" style="html=1;whiteSpace=wrap;strokeColor=#6c8ebf;fillColor=#dae8fc;" vertex="1" parent="GhlGxq6gx5H_YgF2LxDl-42">
          <mxGeometry width="180" height="130" as="geometry" />
        </mxCell>
        <mxCell id="GhlGxq6gx5H_YgF2LxDl-44" value="&lt;font style=&quot;font-size: 18px;&quot;&gt;3&lt;/font&gt;" style="shape=umlFrame;whiteSpace=wrap;html=1;pointerEvents=0;fillColor=#dae8fc;strokeColor=#6c8ebf;" vertex="1" parent="GhlGxq6gx5H_YgF2LxDl-42">
          <mxGeometry width="180" height="130" as="geometry" />
        </mxCell>
        <mxCell id="GhlGxq6gx5H_YgF2LxDl-45" value="&lt;b&gt;觀察者(Observer)&lt;/b&gt;宣告通用介面&lt;br&gt;大多情況下只會包含一個update&lt;br&gt;可以有多個參數，Subject能在更新時傳遞更新的資訊。" style="html=1;whiteSpace=wrap;strokeColor=#6c8ebf;fillColor=#dae8fc;" vertex="1" parent="GhlGxq6gx5H_YgF2LxDl-42">
          <mxGeometry y="22.941176470588236" width="180" height="107.05882352941175" as="geometry" />
        </mxCell>
        <mxCell id="GhlGxq6gx5H_YgF2LxDl-47" value="" style="group" vertex="1" connectable="0" parent="WIyWlLk6GJQsqaUBKTNV-1">
          <mxGeometry x="720" y="290" width="180" height="130" as="geometry" />
        </mxCell>
        <mxCell id="GhlGxq6gx5H_YgF2LxDl-48" value="" style="html=1;whiteSpace=wrap;strokeColor=#6c8ebf;fillColor=#dae8fc;" vertex="1" parent="GhlGxq6gx5H_YgF2LxDl-47">
          <mxGeometry width="180" height="130" as="geometry" />
        </mxCell>
        <mxCell id="GhlGxq6gx5H_YgF2LxDl-49" value="&lt;font style=&quot;font-size: 18px;&quot;&gt;4&lt;/font&gt;" style="shape=umlFrame;whiteSpace=wrap;html=1;pointerEvents=0;fillColor=#dae8fc;strokeColor=#6c8ebf;" vertex="1" parent="GhlGxq6gx5H_YgF2LxDl-47">
          <mxGeometry width="180" height="130" as="geometry" />
        </mxCell>
        <mxCell id="GhlGxq6gx5H_YgF2LxDl-50" value="&lt;b&gt;具體觀察者(ConcreteObserver)&lt;/b&gt;&lt;br&gt;可以執行一些操作來回應Subject&lt;br&gt;所有Observer皆實現相同介面&lt;br&gt;因此Subject不需要與具體觀察者耦合" style="html=1;whiteSpace=wrap;strokeColor=#6c8ebf;fillColor=#dae8fc;" vertex="1" parent="GhlGxq6gx5H_YgF2LxDl-47">
          <mxGeometry y="22.941176470588236" width="180" height="107.05882352941175" as="geometry" />
        </mxCell>
        <mxCell id="GhlGxq6gx5H_YgF2LxDl-55" value="" style="group" vertex="1" connectable="0" parent="WIyWlLk6GJQsqaUBKTNV-1">
          <mxGeometry x="534" y="540" width="160" height="130" as="geometry" />
        </mxCell>
        <mxCell id="GhlGxq6gx5H_YgF2LxDl-56" value="" style="html=1;whiteSpace=wrap;strokeColor=#6c8ebf;fillColor=#dae8fc;" vertex="1" parent="GhlGxq6gx5H_YgF2LxDl-55">
          <mxGeometry width="160" height="130" as="geometry" />
        </mxCell>
        <mxCell id="GhlGxq6gx5H_YgF2LxDl-57" value="&lt;font style=&quot;font-size: 18px;&quot;&gt;5&lt;/font&gt;" style="shape=umlFrame;whiteSpace=wrap;html=1;pointerEvents=0;fillColor=#dae8fc;strokeColor=#6c8ebf;" vertex="1" parent="GhlGxq6gx5H_YgF2LxDl-55">
          <mxGeometry width="160" height="130" as="geometry" />
        </mxCell>
        <mxCell id="GhlGxq6gx5H_YgF2LxDl-58" value="Observer通常需要一些上下文訊息來處理更新，因此，&lt;br&gt;Subject通常會將一些上下文作為通知方法的參數進行傳遞&lt;br&gt;Subject也可以將自身的參數進行傳遞，使Observer直接獲得所需要的書據" style="html=1;whiteSpace=wrap;strokeColor=#6c8ebf;fillColor=#dae8fc;" vertex="1" parent="GhlGxq6gx5H_YgF2LxDl-55">
          <mxGeometry y="22.94" width="160" height="107.06" as="geometry" />
        </mxCell>
        <mxCell id="GhlGxq6gx5H_YgF2LxDl-63" value="" style="group" vertex="1" connectable="0" parent="WIyWlLk6GJQsqaUBKTNV-1">
          <mxGeometry x="100" y="540" width="180" height="130" as="geometry" />
        </mxCell>
        <mxCell id="GhlGxq6gx5H_YgF2LxDl-64" value="" style="html=1;whiteSpace=wrap;strokeColor=#6c8ebf;fillColor=#dae8fc;" vertex="1" parent="GhlGxq6gx5H_YgF2LxDl-63">
          <mxGeometry width="180" height="130" as="geometry" />
        </mxCell>
        <mxCell id="GhlGxq6gx5H_YgF2LxDl-65" value="&lt;span style=&quot;font-size: 18px;&quot;&gt;6&lt;/span&gt;" style="shape=umlFrame;whiteSpace=wrap;html=1;pointerEvents=0;fillColor=#dae8fc;strokeColor=#6c8ebf;" vertex="1" parent="GhlGxq6gx5H_YgF2LxDl-63">
          <mxGeometry width="180" height="130" as="geometry" />
        </mxCell>
        <mxCell id="GhlGxq6gx5H_YgF2LxDl-66" value="&lt;b&gt;客戶端(Client)&lt;/b&gt;&lt;br&gt;分別創建Subject和Observer&lt;br&gt;然後將Observer註冊到Subject" style="html=1;whiteSpace=wrap;strokeColor=#6c8ebf;fillColor=#dae8fc;" vertex="1" parent="GhlGxq6gx5H_YgF2LxDl-63">
          <mxGeometry y="22.941176470588236" width="180" height="107.05882352941175" as="geometry" />
        </mxCell>
      </root>
    </mxGraphModel>
  </diagram>
</mxfile>
